<?xml version="1.0" standalone="no"?>
<!DOCTYPE svg PUBLIC "-//W3C//DTD SVG 20010904//EN"
 "http://www.w3.org/TR/2001/REC-SVG-20010904/DTD/svg10.dtd">
<svg version="1.0" xmlns="http://www.w3.org/2000/svg"
 width="512.000000pt" height="512.000000pt" viewBox="0 0 512.000000 512.000000"
 preserveAspectRatio="xMidYMid meet">
<metadata>
Created by potrace 1.14, written by Peter Selinger 2001-2017
</metadata>
<g transform="translate(0.000000,512.000000) scale(0.100000,-0.100000)"
fill="#000000" stroke="none">
<path d="M1330 3156 l0 -76 73 0 72 0 -2 -502 c-2 -312 -7 -517 -13 -541 -12
-42 -38 -62 -92 -72 l-38 -7 0 -64 0 -64 324 0 c179 0 360 5 403 11 371 51
616 331 617 704 0 87 -5 126 -23 185 -72 237 -237 398 -481 471 -71 21 -96 23
-457 27 l-383 3 0 -75z m660 -66 c125 -24 240 -108 300 -221 43 -81 70 -215
70 -352 0 -244 -80 -415 -232 -498 -63 -34 -63 -34 -218 -37 l-155 -4 5 519
c5 567 5 563 65 589 36 16 94 17 165 4z"/>
<path d="M3189 2846 c-175 -49 -326 -212 -365 -395 -77 -363 142 -650 496
-651 236 0 415 139 477 371 25 97 23 275 -6 358 -74 213 -250 333 -485 330
-39 0 -92 -6 -117 -13z m189 -140 c89 -47 141 -195 141 -406 1 -161 -41 -294
-103 -336 -57 -37 -148 -30 -200 16 -127 112 -152 536 -39 671 56 66 137 88
201 55z"/>
</g>
</svg>
