<svg viewBox="0 0 86 26" fill="none" xmlns="http://www.w3.org/2000/svg">
<path d="M5.61601 19.384C4.65601 19.384 3.80801 19.136 3.07201 18.64C2.35201 18.144 1.78401 17.44 1.36801 16.528C0.968005 15.616 0.768005 14.544 0.768005 13.312C0.768005 12.016 1.01601 10.864 1.51201 9.85601C2.00801 8.84801 2.70401 8.05601 3.60001 7.48001C4.49601 6.90401 5.53601 6.61601 6.72001 6.61601C7.15201 6.61601 7.53601 6.664 7.87201 6.76C8.22401 6.84001 8.55201 6.93601 8.85601 7.04801V5.46401C8.85601 5.24001 8.86401 4.92001 8.88001 4.50401C8.89601 4.08801 8.92001 3.704 8.95201 3.35201C8.69601 3.36801 8.39201 3.38401 8.04001 3.40001C7.68801 3.41601 7.42401 3.42401 7.24801 3.42401V1.60001C8.00001 1.60001 8.62401 1.56001 9.12001 1.48001C9.63201 1.40001 10.032 1.30401 10.32 1.19201C10.624 1.08001 10.832 0.976006 10.944 0.880005H12.24V15.136C12.24 15.36 12.232 15.68 12.216 16.096C12.2 16.496 12.176 16.88 12.144 17.248C12.416 17.216 12.704 17.2 13.008 17.2C13.312 17.184 13.544 17.176 13.704 17.176V19H9.14401C9.12801 18.824 9.10401 18.64 9.07201 18.448C9.05601 18.256 9.03201 18.072 9.00001 17.896C8.47201 18.44 7.92801 18.824 7.36801 19.048C6.80801 19.272 6.22401 19.384 5.61601 19.384ZM6.86401 17.2C7.28001 17.2 7.66401 17.096 8.01601 16.888C8.36801 16.664 8.64801 16.384 8.85601 16.048C8.85601 15.808 8.85601 15.568 8.85601 15.328C8.85601 15.088 8.85601 14.848 8.85601 14.608V8.84801C8.69601 8.72001 8.45601 8.61601 8.13601 8.53601C7.81601 8.44001 7.48801 8.39201 7.15201 8.39201C6.41601 8.40801 5.84001 8.64001 5.42401 9.08801C5.00801 9.53601 4.71201 10.104 4.53601 10.792C4.37601 11.48 4.29601 12.2 4.29601 12.952C4.29601 13.624 4.37601 14.288 4.53601 14.944C4.71201 15.6 4.98401 16.144 5.35201 16.576C5.73601 16.992 6.24001 17.2 6.86401 17.2Z" fill="black"/>
<path d="M21.9529 19C21.9209 18.776 21.8969 18.592 21.8809 18.448C21.8809 18.288 21.8729 18.104 21.8569 17.896C21.3129 18.44 20.7369 18.824 20.1289 19.048C19.5209 19.272 18.9049 19.384 18.2809 19.384C17.2569 19.384 16.4569 19.08 15.8809 18.472C15.3049 17.864 15.0169 17.104 15.0169 16.192C15.0169 15.424 15.2089 14.768 15.5929 14.224C15.9929 13.68 16.5129 13.24 17.1529 12.904C17.8089 12.552 18.5289 12.288 19.3129 12.112C20.1129 11.92 20.9129 11.808 21.7129 11.776V10.528C21.7129 10.112 21.6569 9.73601 21.5449 9.40001C21.4489 9.064 21.2729 8.80001 21.0169 8.60801C20.7769 8.41601 20.4329 8.32801 19.9849 8.34401C19.6809 8.36001 19.3849 8.42401 19.0969 8.53601C18.8089 8.64801 18.5609 8.80801 18.3529 9.01601C18.4809 9.16001 18.5609 9.32001 18.5929 9.49601C18.6249 9.65601 18.6409 9.80001 18.6409 9.92801C18.6409 10.248 18.5129 10.584 18.2569 10.936C18.0009 11.272 17.5929 11.432 17.0329 11.416C16.5529 11.4 16.1849 11.232 15.9289 10.912C15.6729 10.592 15.5449 10.216 15.5449 9.78401C15.5449 9.14401 15.7689 8.59201 16.2169 8.12801C16.6809 7.64801 17.2969 7.28001 18.0649 7.02401C18.8329 6.75201 19.6809 6.61601 20.6089 6.61601C22.0169 6.61601 23.1049 6.98401 23.8729 7.72001C24.6569 8.44001 25.0489 9.6 25.0489 11.2C25.0489 11.744 25.0489 12.208 25.0489 12.592C25.0489 12.976 25.0409 13.36 25.0249 13.744C25.0249 14.128 25.0249 14.592 25.0249 15.136C25.0249 15.36 25.0169 15.68 25.0009 16.096C24.9849 16.496 24.9609 16.88 24.9289 17.248C25.2009 17.216 25.4889 17.2 25.7929 17.2C26.0969 17.184 26.3289 17.176 26.4889 17.176V19H21.9529ZM21.6889 13.48C21.2409 13.528 20.8169 13.608 20.4169 13.72C20.0169 13.832 19.6649 13.984 19.3609 14.176C19.0729 14.368 18.8409 14.6 18.6649 14.872C18.5049 15.144 18.4249 15.448 18.4249 15.784C18.4409 16.232 18.5849 16.552 18.8569 16.744C19.1289 16.936 19.4409 17.032 19.7929 17.032C20.1609 17.032 20.5049 16.952 20.8249 16.792C21.1449 16.632 21.4329 16.424 21.6889 16.168C21.6889 16.008 21.6889 15.856 21.6889 15.712C21.6889 15.552 21.6889 15.392 21.6889 15.232C21.6889 14.944 21.6889 14.656 21.6889 14.368C21.6889 14.064 21.6889 13.768 21.6889 13.48Z" fill="black"/>
<path d="M27.8668 17.44C28.3148 17.44 28.6348 17.352 28.8268 17.176C29.0188 17 29.1388 16.752 29.1868 16.432C29.2508 16.096 29.2828 15.72 29.2828 15.304V11.32C29.2828 11.032 29.2908 10.704 29.3068 10.336C29.3228 9.95201 29.3468 9.58401 29.3788 9.23201C29.1228 9.24801 28.8188 9.264 28.4668 9.28C28.1308 9.28 27.8748 9.28801 27.6988 9.30401V7.48001C28.4348 7.48001 29.0588 7.44001 29.5708 7.36001C30.0828 7.28001 30.4828 7.18401 30.7708 7.07201C31.0748 6.96001 31.2828 6.85601 31.3948 6.76H32.6908V15.136C32.6908 15.36 32.6828 15.68 32.6668 16.096C32.6508 16.496 32.6268 16.88 32.5948 17.248C32.8508 17.216 33.1308 17.2 33.4348 17.2C33.7548 17.184 33.9948 17.176 34.1548 17.176V19H27.8668V17.44ZM30.8668 4.864C30.3228 4.864 29.8748 4.67201 29.5228 4.28801C29.1708 3.90401 28.9948 3.44001 28.9948 2.89601C28.9948 2.35201 29.1788 1.88801 29.5468 1.50401C29.9148 1.12001 30.3468 0.928006 30.8428 0.928006C31.3548 0.928006 31.7788 1.12001 32.1148 1.50401C32.4668 1.88801 32.6428 2.35201 32.6428 2.89601C32.6428 3.44001 32.4828 3.90401 32.1628 4.28801C31.8428 4.67201 31.4108 4.864 30.8668 4.864Z" fill="black"/>
<path d="M35.3344 17.44C35.7824 17.44 36.1024 17.352 36.2944 17.176C36.5024 17 36.6304 16.752 36.6784 16.432C36.7264 16.096 36.7504 15.72 36.7504 15.304V5.44001C36.7504 5.15201 36.7584 4.82401 36.7744 4.45601C36.7904 4.072 36.8144 3.704 36.8464 3.35201C36.5904 3.36801 36.2864 3.38401 35.9344 3.40001C35.5984 3.40001 35.3424 3.40801 35.1664 3.42401V1.60001C35.9184 1.60001 36.5424 1.56001 37.0384 1.48001C37.5504 1.40001 37.9504 1.30401 38.2384 1.19201C38.5424 1.08001 38.7504 0.976006 38.8624 0.880005H40.1584V15.136C40.1584 15.36 40.1504 15.68 40.1344 16.096C40.1184 16.496 40.0944 16.88 40.0624 17.248C40.3344 17.216 40.6224 17.2 40.9264 17.2C41.2304 17.184 41.4624 17.176 41.6224 17.176V19H35.3344V17.44Z" fill="black"/>
<path d="M45.5754 25.504C44.9674 25.504 44.4474 25.32 44.0154 24.952C43.5994 24.6 43.3914 24.128 43.3914 23.536C43.3914 23.104 43.5274 22.72 43.7994 22.384C44.0874 22.064 44.4554 21.896 44.9034 21.88C45.2554 21.864 45.5514 21.976 45.7914 22.216C46.0474 22.472 46.1754 22.816 46.1754 23.248C46.1754 23.296 46.1754 23.344 46.1754 23.392C46.1754 23.44 46.1674 23.496 46.1514 23.56C46.1834 23.56 46.2234 23.552 46.2714 23.536C46.4154 23.488 46.5674 23.352 46.7274 23.128C46.9034 22.92 47.0714 22.64 47.2314 22.288C47.4074 21.92 47.5754 21.504 47.7354 21.04C47.9114 20.592 48.0634 20.12 48.1914 19.624L44.3994 12.016C43.9514 11.12 43.6554 10.448 43.5114 10C43.3834 9.53601 43.2954 9.12801 43.2474 8.77601L42.1434 8.82401V7.00001H48.1194V8.53601C47.5274 8.60001 47.1994 8.82401 47.1354 9.20801C47.0874 9.59201 47.1594 9.99201 47.3514 10.408L49.7034 15.784C49.8634 15.368 50.0714 14.728 50.3274 13.864C50.5834 12.984 50.8874 12.032 51.2394 11.008C51.3034 10.8 51.3834 10.56 51.4794 10.288C51.5914 10 51.7114 9.72001 51.8394 9.44801C51.9674 9.16001 52.1034 8.92801 52.2474 8.75201L50.8794 8.82401V7.00001H55.1514V8.53601C54.6554 8.64801 54.2394 8.95201 53.9034 9.44801C53.5834 9.94401 53.2954 10.552 53.0394 11.272L50.0394 19.84C49.5914 21.136 49.1674 22.2 48.7674 23.032C48.3674 23.88 47.9194 24.504 47.4234 24.904C46.9274 25.304 46.3114 25.504 45.5754 25.504Z" fill="black"/>
<path d="M55.7156 17.416C56.0836 17.4 56.3876 17.352 56.6276 17.272C56.8836 17.192 57.0756 17.008 57.2036 16.72C57.3476 16.432 57.4196 15.968 57.4196 15.328V6.13601C57.4196 5.70401 57.4276 5.28801 57.4436 4.88801C57.4756 4.48801 57.4996 4.18401 57.5156 3.97601C57.2596 3.99201 56.9396 4.00801 56.5556 4.02401C56.1716 4.02401 55.8916 4.03201 55.7156 4.04801V2.20001L62.6996 2.17601C64.2836 2.17601 65.6516 2.41601 66.8036 2.89601C67.9716 3.36001 68.9236 3.99201 69.6596 4.79201C70.4116 5.59201 70.9716 6.48801 71.3396 7.48001C71.7076 8.45601 71.8916 9.44 71.8916 10.432C71.8916 11.408 71.7156 12.4 71.3636 13.408C71.0276 14.416 70.4916 15.344 69.7556 16.192C69.0196 17.024 68.0596 17.704 66.8756 18.232C65.6916 18.744 64.2596 19 62.5796 19H55.7156V17.416ZM60.8996 15.064C60.8996 15.496 60.8916 15.912 60.8756 16.312C60.8596 16.712 60.8356 17.016 60.8036 17.224C60.9636 17.208 61.1796 17.208 61.4516 17.224C61.7396 17.224 62.0356 17.232 62.3396 17.248C62.6436 17.248 62.8916 17.248 63.0836 17.248C63.9636 17.248 64.7156 17.072 65.3396 16.72C65.9796 16.368 66.4996 15.896 66.8996 15.304C67.3156 14.696 67.6196 14.016 67.8116 13.264C68.0036 12.512 68.0996 11.736 68.0996 10.936C68.0996 9.304 67.8756 7.96801 67.4276 6.92801C66.9796 5.88801 66.3476 5.11201 65.5316 4.60001C64.7316 4.08801 63.7716 3.81601 62.6516 3.78401C62.2676 3.76801 61.9396 3.808 61.6676 3.90401C61.4116 3.98401 61.2196 4.16801 61.0916 4.45601C60.9636 4.74401 60.8996 5.20001 60.8996 5.82401V15.064Z" fill="black"/>
<path d="M79.5906 19.384C78.4386 19.384 77.3986 19.136 76.4706 18.64C75.5426 18.144 74.8066 17.44 74.2626 16.528C73.7346 15.6 73.4706 14.512 73.4706 13.264C73.4706 11.936 73.7426 10.776 74.2866 9.78401C74.8466 8.77601 75.5826 8.00001 76.4946 7.45601C77.4226 6.89601 78.4306 6.61601 79.5186 6.61601C80.6706 6.61601 81.7026 6.86401 82.6146 7.36001C83.5266 7.85601 84.2466 8.56801 84.7746 9.49601C85.3026 10.408 85.5666 11.504 85.5666 12.784C85.5666 14.128 85.3106 15.296 84.7986 16.288C84.2866 17.28 83.5826 18.048 82.6866 18.592C81.7906 19.12 80.7586 19.384 79.5906 19.384ZM79.6866 17.68C80.3266 17.664 80.8066 17.44 81.1266 17.008C81.4626 16.576 81.6946 16.032 81.8226 15.376C81.9506 14.72 82.0146 14.056 82.0146 13.384C82.0146 12.792 81.9666 12.192 81.8706 11.584C81.7906 10.976 81.6546 10.424 81.4626 9.92801C81.2706 9.43201 81.0066 9.03201 80.6706 8.728C80.3506 8.42401 79.9506 8.28001 79.4706 8.29601C78.8466 8.31201 78.3506 8.53601 77.9826 8.96801C77.6306 9.40001 77.3746 9.94401 77.2146 10.6C77.0706 11.24 76.9986 11.912 76.9986 12.616C76.9986 13.432 77.0866 14.232 77.2626 15.016C77.4386 15.8 77.7186 16.448 78.1026 16.96C78.5026 17.456 79.0306 17.696 79.6866 17.68Z" fill="black"/>
</svg>
